<?xml version="1.0" encoding="iso-8859-1"?>
<!-- Generator: Adobe Illustrator 19.0.0, SVG Export Plug-In . SVG Version: 6.00 Build 0)  -->
<svg version="1.1" id="Capa_1" xmlns="http://www.w3.org/2000/svg" xmlns:xlink="http://www.w3.org/1999/xlink" x="0px" y="0px"
	 viewBox="0 0 512 512" style="enable-background:new 0 0 512 512;" xml:space="preserve">
<circle style="fill:#FFDD3B;" cx="256" cy="256" r="256"/>
<path style="fill:#F3C000;" d="M315.919,49.693c-0.081-0.082-0.157-0.168-0.238-0.25c-2.725-2.755-5.862-5.53-9.152-8.03
	c-0.001-0.001-0.001-0.001-0.002-0.002c-15.053-11.436-33.204-17.402-51.639-17.402c-47.168,0-85.542,38.374-85.542,85.542
	c0,40.543-12.731,79.314-36.817,112.126c-21.351,29.087-32.637,63.993-32.637,100.944c0,43.611,15.922,84.691,44.832,115.673
	c2.531,2.712,5.141,5.316,7.82,7.82l62.631,62.631C228.471,510.877,242.103,512,256,512c141.385,0,256-114.615,256-256
	c0-3.504-0.09-6.986-0.23-10.456L315.919,49.693z"/>
<path style="fill:#289541;" d="M254.887,24.009c-47.168,0-85.542,38.374-85.542,85.542c0,40.543-12.731,79.314-36.817,112.126
	c-21.352,29.088-32.637,63.993-32.637,100.944c0,43.611,15.922,84.691,44.832,115.673c14.202,15.219,30.781,27.187,49.277,35.571
	c19.28,8.739,39.766,13.17,60.887,13.17s41.607-4.431,60.887-13.17c18.496-8.384,35.075-20.351,49.277-35.571
	c28.91-30.981,44.832-72.061,44.832-115.673c0-36.951-11.286-71.857-32.637-100.944c-23.742-32.344-36.817-72.163-36.817-112.122
	C340.429,62.383,302.055,24.009,254.887,24.009L254.887,24.009z"/>
<path style="fill:#005B24;" d="M377.246,221.677c-23.742-32.344-36.817-72.163-36.817-112.122c0-46.799-37.774-84.917-84.429-85.518
	l-1.113-0.028v463.026L256,487.02c20.727-0.153,40.833-4.57,59.774-13.156c18.496-8.384,35.075-20.351,49.277-35.571
	c28.91-30.981,44.832-72.061,44.832-115.673C409.883,285.67,398.597,250.765,377.246,221.677z"/>
<path style="fill:#C7E058;" d="M358.267,235.609c-26.824-36.543-41.381-80.723-41.381-126.054v-0.004
	c0-34.241-27.758-61.998-61.998-61.998c-34.241,0-61.998,27.758-61.998,61.998v0.004c0,45.504-14.455,89.372-41.381,126.054
	c-17.584,23.954-28.073,54.17-28.073,87.013c0,77.8,58.853,140.87,131.452,140.87s131.452-63.07,131.452-140.87
	C386.339,289.778,375.85,259.563,358.267,235.609z"/>
<path style="fill:#7DCA3F;" d="M254.887,463.491c72.599,0,131.452-63.07,131.452-140.87c0-32.843-10.489-63.058-28.073-87.013
	c-26.824-36.543-41.381-80.723-41.381-126.054v-0.004c0-34.241-27.758-61.998-61.998-61.998L254.887,463.491L254.887,463.491z"/>
<ellipse style="fill:#8D4E14;" cx="254.89" cy="310.85" rx="66.71" ry="82.8"/>
<path style="fill:#68390A;" d="M321.594,310.849c0-45.727-29.866-82.795-66.707-82.795v165.591
	C291.728,393.645,321.594,356.576,321.594,310.849z"/>
<g>
</g>
<g>
</g>
<g>
</g>
<g>
</g>
<g>
</g>
<g>
</g>
<g>
</g>
<g>
</g>
<g>
</g>
<g>
</g>
<g>
</g>
<g>
</g>
<g>
</g>
<g>
</g>
<g>
</g>
</svg>
